<svg width="557" height="551" viewBox="0 0 557 551" fill="none" xmlns="http://www.w3.org/2000/svg">
<g id="Logo1 1">
<g id="Artboard">
<g id="Group">
<path id="Rectangle" fill-rule="evenodd" clip-rule="evenodd" d="M147.587 271.24H262.535V410.41H165.326C155.529 410.41 147.587 402.462 147.587 392.659V271.24Z" fill="#112434" stroke="#00DECD" stroke-width="5"/>
<path id="Rectangle_2" fill-rule="evenodd" clip-rule="evenodd" d="M280.274 254.198V181.063H399.479C407.317 181.063 413.67 187.421 413.67 195.264V239.997C413.67 247.84 407.317 254.198 399.479 254.198H280.274Z" fill="#112434" stroke="#00DECD" stroke-width="5"/>
<path id="Rectangle_3" fill-rule="evenodd" clip-rule="evenodd" d="M262.535 254.198V181.063H143.33C135.492 181.063 129.139 187.421 129.139 195.264V239.997C129.139 247.84 135.492 254.198 143.33 254.198H262.535Z" fill="#00DECD" stroke="#00DECD"/>
<path id="Rectangle_4" fill-rule="evenodd" clip-rule="evenodd" d="M395.222 271.24H280.274V410.41H377.483C387.28 410.41 395.222 402.462 395.222 392.659V271.24Z" fill="#00DECD" stroke="#00DECD"/>
<g id="palm">
<path id="Path" d="M339.918 109.421C352.402 105.573 366.209 107.3 377.499 114.616C378.791 115.453 378.796 117.353 377.499 118.193C363.315 127.383 344.96 127.849 330.249 119.103L312.347 137.029C328.79 131.154 347.356 133.088 362.399 142.835C363.691 143.672 363.696 145.572 362.399 146.412C344.151 158.236 320.662 158.591 302.064 147.327L282.246 167.172C302.465 159.255 325.639 161.342 344.3 173.434C345.592 174.271 345.597 176.171 344.3 177.011C322.072 191.414 293.692 191.521 271.504 177.928C255.809 193.646 256.674 193.132 255.44 193.132C253.562 193.132 252.592 190.842 253.936 189.496L268.496 174.916C254.828 152.543 255.131 124.121 269.413 102.019C270.252 100.72 272.149 100.726 272.985 102.019C285.06 120.706 287.143 143.912 279.238 164.16L299.056 144.314C287.834 125.733 288.137 102.207 299.969 83.8952C300.807 82.5996 302.704 82.5993 303.541 83.8952C313.275 98.9593 315.206 117.552 309.339 134.017L327.241 116.09C318.586 101.492 318.888 83.1074 328.15 68.7744C328.987 67.4788 330.884 67.4785 331.722 68.7744C339.028 80.0805 340.752 93.9067 336.91 106.408L344.18 99.1279C348.098 82.226 361.471 69.0181 378.457 65.3732C379.961 65.0505 381.305 66.3903 380.982 67.9024C377.326 84.9864 364.036 98.4218 347.05 102.279L339.918 109.421Z" fill="#00DECD" stroke="#00DECD" stroke-width="3"/>
</g>
<g id="palm_2">
<path id="Path_2" d="M202.182 108.711C189.698 104.863 175.89 106.59 164.6 113.906C163.309 114.743 163.304 116.642 164.6 117.483C178.784 126.673 197.139 127.139 211.851 118.393L229.752 136.319C213.31 130.444 194.743 132.378 179.7 142.125C178.409 142.962 178.404 144.862 179.7 145.702C197.948 157.526 221.437 157.881 240.036 146.617L259.854 166.462C239.634 158.545 216.46 160.632 197.799 172.724C196.507 173.561 196.502 175.461 197.799 176.301C220.027 190.704 248.408 190.811 270.595 177.218C286.29 192.936 285.425 192.422 286.659 192.422C288.537 192.422 289.507 190.132 288.163 188.786L273.603 174.206C287.272 151.833 286.968 123.411 272.687 101.309C271.848 100.01 269.95 100.016 269.115 101.309C257.04 119.996 254.956 143.202 262.862 163.45L243.044 143.604C254.266 125.023 253.962 101.497 242.13 83.1852C241.292 81.8896 239.396 81.8893 238.558 83.1852C228.824 98.2493 226.893 116.842 232.761 133.307L214.859 115.38C223.513 100.782 223.211 82.3973 213.95 68.0644C213.112 66.7687 211.215 66.7685 210.378 68.0644C203.072 79.3704 201.347 93.1967 205.19 105.698L197.919 98.4178C194.001 81.516 180.628 68.308 163.643 64.6631C162.138 64.3404 160.794 65.6803 161.117 67.1924C164.773 84.2763 178.064 97.7117 195.05 101.569L202.182 108.711Z" fill="#112434" stroke="#00DECD" stroke-width="5"/>
</g>
<text id="MetisGift" fill="#00DECD" xml:space="preserve" style="white-space: pre" font-family="Nunito" font-size="72" letter-spacing="0em"><tspan x="129" y="488.688">MetisGift</tspan></text>
</g>
</g>
</g>
</svg>
