<?xml version="1.0" encoding="UTF-8"?>
<svg width="785px" height="776px" viewBox="0 0 785 776" version="1.1" xmlns="http://www.w3.org/2000/svg" xmlns:xlink="http://www.w3.org/1999/xlink">
    <title>Artboard</title>
    <g id="Artboard" stroke="none" stroke-width="1" fill="none" fill-rule="evenodd">
        <circle id="Oval" stroke="#313043" fill="#313043" cx="385" cy="385" r="355"></circle>
        <g id="Group" transform="translate(138.000000, 91.000000)">
            <path d="M70,291 L232,291 L232,487 L95,487 C81.1928813,487 70,475.807119 70,462 L70,291 L70,291 Z" id="Rectangle" stroke="#00DECD" stroke-width="5" fill="#313043"></path>
            <path d="M299.5,121.5 L402.5,121.5 L402.5,289.5 C402.5,300.545695 393.545695,309.5 382.5,309.5 L319.5,309.5 C308.454305,309.5 299.5,300.545695 299.5,289.5 L299.5,121.5 L299.5,121.5 Z" id="Rectangle" stroke="#00DECD" stroke-width="5" fill="#313043" transform="translate(351.000000, 215.500000) scale(-1, -1) rotate(90.000000) translate(-351.000000, -215.500000) "></path>
            <path d="M86.5,121.5 L189.5,121.5 L189.5,289.5 C189.5,300.545695 180.545695,309.5 169.5,309.5 L106.5,309.5 C95.454305,309.5 86.5,300.545695 86.5,289.5 L86.5,121.5 L86.5,121.5 Z" id="Rectangle" stroke="#00DECD" fill="#00DECD" transform="translate(138.000000, 215.500000) scale(1, -1) rotate(90.000000) translate(-138.000000, -215.500000) "></path>
            <path d="M257,291 L419,291 L419,487 L282,487 C268.192881,487 257,475.807119 257,462 L257,291 L257,291 Z" id="Rectangle" stroke="#00DECD" fill="#00DECD" transform="translate(338.000000, 389.000000) scale(-1, 1) translate(-338.000000, -389.000000) "></path>
            <g id="palm" transform="translate(219.000000, 1.000000)" fill="#00DECD" fill-rule="nonzero" stroke="#00DECD" stroke-width="3">
                <path d="M122.058253,62.1022749 C139.652463,56.6832762 159.111357,59.1158445 175.023379,69.4191044 C176.84347,70.5977019 176.85059,73.2732646 175.023379,74.456362 C155.033484,87.3999354 129.165113,88.0561701 108.431368,75.7384571 L83.2019206,100.985119 C106.375194,92.7101866 132.541855,95.4341232 153.742145,109.161428 C155.562236,110.340026 155.569356,113.015588 153.742145,114.198686 C128.024418,130.850923 94.9206515,131.350786 68.7093969,115.487156 L40.7792302,143.436755 C69.2752476,132.287139 101.935327,135.226321 128.235019,152.255424 C130.05511,153.434022 130.06223,156.109584 128.235019,157.292682 C96.9074996,177.577459 56.9104726,177.728955 25.6410371,158.585277 C3.52077078,180.720636 4.74016035,179.997278 3.00138727,179.997278 C0.354629898,179.997278 -1.01278022,176.771603 0.881508118,174.876022 L21.4009041,154.342625 C2.13762177,122.83361 2.56594453,82.8051675 22.6929923,51.6782678 C23.8756578,49.8494354 26.5493962,49.8573102 27.7271901,51.6782678 C44.7446821,77.9959045 47.6814848,110.678643 36.5394719,139.194103 L64.4700133,111.244505 C48.6542983,85.0761145 49.0818716,51.9433866 65.7576048,26.1537376 C66.9380218,24.3290301 69.6110107,24.3286551 70.7918025,26.1537376 C84.5097478,47.3692432 87.2314522,73.553758 78.9621623,96.7428427 L104.191984,71.495806 C91.9950909,50.9361601 92.4207905,25.0441385 105.473205,4.85835885 C106.653622,3.03365137 109.326611,3.03327638 110.507403,4.85835885 C120.803638,20.7812378 123.234173,40.253409 117.818869,57.8599988 L128.065264,47.6066127 C133.587367,23.8029174 152.433944,5.20147586 176.372427,0.0682204781 C178.492681,-0.386268931 180.387344,1.5006871 179.931665,3.63026247 C174.779051,27.6904518 156.048643,46.6121359 132.109785,52.0438843 L122.058253,62.1022749 Z" id="Path"></path>
            </g>
            <g id="palm" transform="translate(179.000000, 90.000000) scale(-1, 1) translate(-179.000000, -90.000000) translate(89.000000, 0.000000)" fill="#313043" fill-rule="nonzero" stroke="#00DECD" stroke-width="5">
                <path d="M132.109785,52.0438843 L122.058253,62.1022749 C139.652463,56.6832762 159.111357,59.1158445 175.023379,69.4191044 C176.84347,70.5977019 176.85059,73.2732646 175.023379,74.456362 C155.033484,87.3999354 129.165113,88.0561701 108.431368,75.7384571 L83.2019206,100.985119 C106.375194,92.7101866 132.541855,95.4341232 153.742145,109.161428 C155.562236,110.340026 155.569356,113.015588 153.742145,114.198686 C128.024418,130.850923 94.9206515,131.350786 68.7093969,115.487156 L40.7792302,143.436755 C69.2752476,132.287139 101.935327,135.226321 128.235019,152.255424 C130.05511,153.434022 130.06223,156.109584 128.235019,157.292682 C96.9074996,177.577459 56.9104726,177.728955 25.6410371,158.585277 C3.52077078,180.720636 4.74016035,179.997278 3.00138727,179.997278 C0.354629898,179.997278 -1.01278022,176.771603 0.881508118,174.876022 L21.4009041,154.342625 C2.13762177,122.83361 2.56594453,82.8051675 22.6929923,51.6782678 C23.8756578,49.8494354 26.5493962,49.8573102 27.7271901,51.6782678 C44.7446821,77.9959045 47.6814848,110.678643 36.5394719,139.194103 L64.4700133,111.244505 C48.6542983,85.0761145 49.0818716,51.9433866 65.7576048,26.1537376 C66.9380218,24.3290301 69.6110107,24.3286551 70.7918025,26.1537376 C84.5097478,47.3692432 87.2314522,73.553758 78.9621623,96.7428427 L104.191984,71.495806 C91.9950909,50.9361601 92.4207905,25.0441385 105.473205,4.85835885 C106.653622,3.03365137 109.326611,3.03327638 110.507403,4.85835885 C120.803638,20.7812378 123.234173,40.253409 117.818869,57.8599988 L128.065264,47.6066127 C133.587367,23.8029174 152.433944,5.20147586 176.372427,0.0682204781 C178.492681,-0.386268931 180.387344,1.5006871 179.931665,3.63026247 C174.779051,27.6904518 156.048643,46.6121359 132.109785,52.0438843 L132.109785,52.0438843 Z" id="Path"></path>
            </g>
            <text id="MetisGift" font-family="Nunito-Bold, Nunito" font-size="72" font-weight="bold" letter-spacing="2.07342857" fill="#00DECD">
                <tspan x="83.3455714" y="567">MetisGift</tspan>
            </text>
        </g>
    </g>
</svg>